# File created by Blade
# Date/Time:  Wed Jan 21 15:23:43 2015
# Frame Rate: 120.000 fps
#------------------------------------------------------
:FULLY-SPECIFIED
:DEGREES
996
root 10.511135 28.313782 -18.541994 -160.843783 2.194844 -193.269537
Spine 3.167159 3.684295 -18.405192
Head -20.259814 -4.586712 3.969144
LeftShoulder -3.631468 -26.765587 0.939966
LeftArm -16.995692 46.492131 -82.293265
LeftForeArm 25.535690 -0.000000 50.779775
LeftHand 0.550735 -0.000000 -0.537492
LeftHandThumb1 -26.253704 0.000000 33.147579
RightShoulder -2.632122 -9.685661 5.772089
RightArm 18.826812 -33.216236 63.519081
RightForeArm -29.790341 -0.000000 23.226182
RightHand 4.116680 -0.000000 6.377740
RightHandThumb1 -24.326973 -0.000000 -32.862282
LeftUpLeg -54.643616 13.783628 -21.235849
LeftLeg 71.355908 -0.000000 -0.000000
LeftFoot -53.663334 15.273126 -13.978343
LeftToeBase 25.678792 -0.000000 -0.000000
RightUpLeg -19.568852 -41.987119 -39.368541
RightLeg -4.510736 -0.000000 0.000000
RightFoot 6.276128 -26.147623 16.789056
RightToeBase 32.148853 -0.000000 -0.000000
997
root 10.510560 28.313381 -18.539908 -160.834233 2.190943 -193.274221
Spine 3.159061 3.683089 -18.394867
Head -20.223250 -4.569815 3.951304
LeftShoulder -3.623993 -26.758288 0.933946
LeftArm -17.002720 46.498503 -82.292514
LeftForeArm 25.534306 -0.000000 50.786956
LeftHand 0.541876 -0.000000 -0.560400
LeftHandThumb1 -26.253704 0.000000 33.147579
RightShoulder -2.619181 -9.696148 5.756812
RightArm 18.842013 -33.242711 63.509531
RightForeArm -29.728131 -0.000000 23.208353
RightHand 4.099084 0.000000 6.333610
RightHandThumb1 -24.326973 -0.000000 -32.862282
LeftUpLeg -54.657597 13.794908 -21.249248
LeftLeg 71.357920 -0.000000 -0.000000
LeftFoot -53.653052 15.253800 -13.968580
LeftToeBase 25.650182 -0.000000 -0.000000
RightUpLeg -19.579678 -42.002886 -39.364552
RightLeg -4.516225 -0.000000 0.000000
RightFoot 6.284493 -26.122398 16.895148
RightToeBase 31.812811 -0.000000 -0.000000
998
root 10.510262 28.312429 -18.538120 -160.819662 2.178298 -193.280381
Spine 3.153275 3.679395 -18.383664
Head -20.207293 -4.549584 3.931748
LeftShoulder -3.633135 -26.777428 0.937432
LeftArm -17.023399 46.514931 -82.315662
LeftForeArm 25.529473 -0.000000 50.779034
LeftHand 0.555782 -0.000000 -0.582364
LeftHandThumb1 -26.253704 0.000000 33.147579
RightShoulder -2.616177 -9.684295 5.748660
RightArm 18.834537 -33.257692 63.502808
RightForeArm -29.710038 -0.000000 23.203425
RightHand 4.090700 -0.000000 6.370873
RightHandThumb1 -24.326973 -0.000000 -32.862282
LeftUpLeg -54.675240 13.795913 -21.263396
LeftLeg 71.359634 -0.000000 -0.000000
LeftFoot -53.656262 15.240919 -13.956749
LeftToeBase 25.700499 -0.000000 -0.000000
RightUpLeg -19.577654 -42.025929 -39.369047
RightLeg -4.524777 -0.000000 0.000000
RightFoot 6.298042 -26.124454 16.869781
RightToeBase 31.992468 -0.000000 -0.000000
999
root 10.508923 28.311513 -18.534814 -160.799087 2.181305 -193.286471
Spine 3.130696 3.694675 -18.376225
Head -20.171003 -4.544808 3.913833
LeftShoulder -3.620812 -26.790373 0.928780
LeftArm -17.044127 46.527016 -82.332262
LeftForeArm 25.517225 -0.000000 50.764527
LeftHand 0.587591 -0.000000 -0.569120
LeftHandThumb1 -26.253704 0.000000 33.147579
RightShoulder -2.606546 -9.678790 5.740207
RightArm 18.813251 -33.248677 63.507489
RightForeArm -29.734604 -0.000000 23.201613
RightHand 4.111333 -0.000000 6.351440
RightHandThumb1 -24.326973 -0.000000 -32.862282
LeftUpLeg -54.701711 13.798305 -21.282697
LeftLeg 71.356998 -0.000000 -0.000000
LeftFoot -53.663431 15.242383 -13.947440
LeftToeBase 25.716425 -0.000000 -0.000000
RightUpLeg -19.602883 -42.022166 -39.369435
RightLeg -4.518037 -0.000000 0.000000
RightFoot 6.302520 -26.137230 16.840015
RightToeBase 32.005441 -0.000000 -0.000000
1000
root 10.508519 28.310331 -18.532433 -160.782269 2.178986 -193.287223
Spine 3.110443 3.701992 -18.363294
Head -20.134735 -4.521167 3.900548
LeftShoulder -3.614939 -26.789737 0.921713
LeftArm -17.050181 46.530592 -82.335580
LeftForeArm 25.509841 0.000000 50.759140
LeftHand 0.586879 0.000000 -0.577868
LeftHandThumb1 -26.253704 0.000000 33.147579
RightShoulder -2.597455 -9.679956 5.729954
RightArm 18.821141 -33.257896 63.505376
RightForeArm -29.696776 0.000000 23.164479
RightHand 4.101865 -0.000000 6.364720
RightHandThumb1 -24.326973 -0.000000 -32.862282
LeftUpLeg -54.726262 13.807464 -21.296465
LeftLeg 71.360650 -0.000000 -0.000000
LeftFoot -53.659136 15.239892 -13.931551
LeftToeBase 25.716179 -0.000000 -0.000000
RightUpLeg -19.627717 -42.035244 -39.352322
RightLeg -4.516890 -0.000000 0.000000
RightFoot 6.294824 -26.160081 16.753800
RightToeBase 31.977198 -0.000000 -0.000000
